<svg width="500" height="500" viewBox="0 0 500 500" fill="none" xmlns="http://www.w3.org/2000/svg">
<g clip-path="url(#clip0_1_2)">
<path fill-rule="evenodd" clip-rule="evenodd" d="M21.2557 193.156C21.2557 176.82 34.4982 163.578 50.8336 163.578H103.52C111.365 163.578 118.888 166.694 124.435 172.241C129.982 177.788 133.098 185.311 133.098 193.156V392.772C133.098 409.107 119.856 422.35 103.52 422.35H50.8336C34.4982 422.35 21.2557 409.107 21.2557 392.772V193.156Z" fill="#FFD500"/>
<path fill-rule="evenodd" clip-rule="evenodd" d="M194.086 107.22C194.086 90.8842 207.329 77.6418 223.664 77.6418H276.351C284.195 77.6418 291.719 80.758 297.266 86.3049C302.813 91.8518 305.929 99.3751 305.929 107.22V392.788C305.929 409.124 292.686 422.366 276.351 422.366H223.664C207.329 422.366 194.086 409.124 194.086 392.788V107.22Z" fill="#4F81C1"/>
<path fill-rule="evenodd" clip-rule="evenodd" d="M366.917 251.391C366.917 235.055 380.159 221.813 396.495 221.813H449.181C457.026 221.813 464.549 224.929 470.096 230.476C475.643 236.023 478.759 243.546 478.759 251.391V392.77C478.759 409.106 465.517 422.348 449.181 422.348H396.495C380.159 422.348 366.917 409.106 366.917 392.77V251.391Z" fill="#AE0F0A"/>
<path d="M416.988 275.677C423.849 289.968 421.478 352.275 334.758 386.802C290.196 404.533 240.754 399.75 197.9 381.482C155.046 363.213 124.022 333.479 108.214 303.11C83.8842 256.339 77.9975 177.829 175.516 148.148C275.238 117.797 336.131 214.59 365.212 240.175C400.232 271.021 410.775 262.77 416.988 275.677Z" fill="url(#paint0_radial_1_2)"/>
<path d="M288.07 166.897C288.07 166.897 258.491 192.888 204.833 202.721C161.402 210.684 139.253 194.032 139.253 194.032C139.253 194.032 121.805 203.997 108.505 203.876C103.179 203.824 101.409 201.393 105.882 193.521C112.629 181.595 139.668 155.8 186.989 146.868C246.217 135.743 288.07 166.897 288.07 166.897Z" fill="#DC0D27"/>
<path d="M353.622 257.692C350.228 269.053 329.462 260.83 313.972 251.632C291.615 238.343 279.341 224.077 272.482 216.994C265.624 209.912 254.637 193.687 266.829 187.497C279.522 181.072 287.764 196.69 297.816 207.174C307.868 217.658 321.222 229.779 331.37 237.301C342.148 245.303 355.636 250.955 353.622 257.692Z" fill="#FFEBC9"/>
<path d="M129.266 177.231C132.875 184.237 127.368 191.2 123.587 196.145C119.807 201.091 109.491 205.226 105.272 203.555C101.06 201.91 103.096 193.379 99.354 189.504C95.6375 185.623 89.6598 181.252 94.2358 176.076C98.0636 171.733 104.002 168.958 110.016 168.674C116.031 168.39 117.172 172.743 119.828 173.318C122.542 173.906 128.036 174.822 129.266 177.231Z" fill="#6D4C41"/>
<path d="M135.406 178.063C142.426 179.203 164.771 189.104 209.024 181.331C257.827 172.767 312.576 152.696 321.608 148.97C330.64 145.243 346.467 140.526 345.215 136.574C343.351 130.644 337.63 134.163 324.178 133.761C308.002 133.255 291.078 131.178 277.555 127.163C256.8 120.967 213.252 103.329 177.021 111.88C137.344 121.259 127.82 136.939 120.777 149.794C113.734 162.65 116.367 173.563 120.164 177.237C123.936 180.918 126.861 176.698 135.406 178.063Z" fill="#518E30"/>
<path d="M259.279 143.801C258.647 145.191 241.323 150.318 231.492 152.487C209.055 157.454 189.925 156.048 167.371 159.203C144.817 162.358 126.326 169.707 125.382 169.041C123.656 167.827 132.431 146.091 177.721 139.761C194.402 137.442 217.36 140.351 233.211 142.408C243.338 143.795 259.874 142.474 259.279 143.801Z" fill="#366918"/>
</g>
<defs>
<radialGradient id="paint0_radial_1_2" cx="0" cy="0" r="1" gradientUnits="userSpaceOnUse" gradientTransform="translate(141.237 -57.0256) rotate(165.646) scale(475.827 475.827)">
<stop offset="0.532" stop-color="#F33A1F"/>
<stop offset="0.615" stop-color="#F86922"/>
<stop offset="0.696" stop-color="#FD9124"/>
<stop offset="0.739" stop-color="#FFA025"/>
<stop offset="0.793" stop-color="#FCA025"/>
<stop offset="0.839" stop-color="#F1A124"/>
<stop offset="0.883" stop-color="#DFA222"/>
<stop offset="0.925" stop-color="#C7A41F"/>
<stop offset="0.962" stop-color="#AAA61C"/>
</radialGradient>
<clipPath id="clip0_1_2">
<rect width="500" height="500" fill="white"/>
</clipPath>
</defs>
</svg>
